@startuml

    namespace org.apache.wiki.api.providers {

        interface PageProvider [[PageProvider.html]] {
            {abstract} +putPageText(Page, String): void
            {abstract} +pageExists(String): boolean
            {abstract} +pageExists(String, int): boolean
            {abstract} +findPages(QueryItem[]): Collection<SearchResult>
            {abstract} +getPageInfo(String, int): Page
            {abstract} +getAllPages(): Collection<Page>
            {abstract} +getAllChangedSince(Date): Collection<Page>
            {abstract} +getPageCount(): int
            {abstract} +getVersionHistory(String): List<Page>
            {abstract} +getPageText(String, int): String
            {abstract} +deleteVersion(String, int): void
            {abstract} +deletePage(String): void
            {abstract} +movePage(String, String): void
        }

        interface AttachmentProvider [[AttachmentProvider.html]] {
            {static} +PROP_STORAGEDIR: String
            {abstract} +putAttachmentData(Attachment, InputStream): void
            {abstract} +getAttachmentData(Attachment): InputStream
            {abstract} +listAttachments(Page): List<Attachment>
            {abstract} +findAttachments(QueryItem[]): Collection<Attachment>
            {abstract} +listAllChanged(Date): List<Attachment>
            {abstract} +getAttachmentInfo(Page, String, int): Attachment
            {abstract} +getVersionHistory(Attachment): List<Attachment>
            {abstract} +deleteVersion(Attachment): void
            {abstract} +deleteAttachment(Attachment): void
            {abstract} +moveAttachmentsForPage(String, String): void
        }

        interface WikiProvider [[WikiProvider.html]] {
            {static} +LATEST_VERSION: int
            {abstract} +initialize(Engine, Properties): void
            {abstract} +getProviderInfo(): String
        }

        WikiProvider <|.. PageProvider

        WikiProvider <|.. AttachmentProvider

    }


    center footer UMLDoclet 1.1.4, PlantUML 1.2019.05
@enduml
