@startuml

    namespace org.apache.wiki.auth.acl {

        interface AclManager [[AclManager.html]] {
            {abstract} +parseAcl(Page, String): Acl
            {abstract} +getPermissions(Page): Acl
            {abstract} +setPermissions(Page, Acl): void
        }

        class UnresolvedPrincipal [[UnresolvedPrincipal.html]] {
            +UnresolvedPrincipal(String)
            +getName(): String
        }

        class DefaultAclManager [[DefaultAclManager.html]] {
            {static} +ACL_PATTERN: Pattern
            +initialize(Engine, Properties): void
            +parseAcl(Page, String): Acl
            +getPermissions(Page): Acl
            +setPermissions(Page, Acl): void
            {static} #printAcl(Acl): String
        }

        class AclEntryImpl [[AclEntryImpl.html]] {
            +addPermission(Permission): boolean
            +checkPermission(Permission): boolean
            +permissions(): Enumeration<Permission>
            +removePermission(Permission): boolean
        }

        class AclImpl [[AclImpl.html]] {
            +findPrincipals(Permission): Principal[]
            +addEntry(AclEntry): boolean
            +removeEntry(AclEntry): boolean
            +aclEntries(): Enumeration<AclEntry>
            +getAclEntry(Principal): AclEntry
            +isEmpty(): boolean
        }

        interface org.apache.wiki.api.engine.Initializable {
            {abstract} +initialize(Engine, Properties): void
        }
        org.apache.wiki.api.engine.Initializable <|.. AclManager

        interface java.security.Principal {
            {abstract} +getName(): String
        }
        java.security.Principal <|.. UnresolvedPrincipal

        interface java.io.Serializable
        java.io.Serializable <|.. UnresolvedPrincipal

        AclManager <|.. DefaultAclManager

        interface AclEntry
        AclEntry <|.. AclEntryImpl

        java.io.Serializable <|.. AclEntryImpl

        interface Acl
        Acl <|.. AclImpl

        java.io.Serializable <|.. AclImpl

        AclEntryImpl --> java.security.Principal: principal

    }


    center footer UMLDoclet 1.1.4, PlantUML 1.2019.05
@enduml
