@startuml

    namespace org.apache.wiki.url {

        class ShortURLConstructor [[ShortURLConstructor.html]] {
            {static} +PROP_PREFIX: String
            #m_urlPrefix: String
            +initialize(Engine, Properties): void
            +makeURL(String, String, String): String
            +parsePage(String, HttpServletRequest, Charset): String
            +getForwardPage(HttpServletRequest): String
        }

        class ShortViewURLConstructor [[ShortViewURLConstructor.html]] {
            +initialize(Engine, Properties): void
            +makeURL(String, String, String): String
            +getForwardPage(HttpServletRequest): String
        }

        interface URLConstructor [[URLConstructor.html]] {
            {static} +parsePageFromURL(HttpServletRequest, Charset): String
            {abstract} +makeURL(String, String, String): String
            {abstract} +parsePage(String, HttpServletRequest, Charset): String
            {abstract} +getForwardPage(HttpServletRequest): String
        }

        class DefaultURLConstructor [[DefaultURLConstructor.html]] {
            #m_engine: Engine
            #m_pathPrefix: String
            +initialize(Engine, Properties): void
            #doReplacement(String, String): String
            {static} +getURLPattern(String, String): String
            +makeURL(String, String, String): String
            +parsePage(String, HttpServletRequest, Charset): String
            +getForwardPage(HttpServletRequest): String
        }

        DefaultURLConstructor <|-- ShortURLConstructor

        ShortURLConstructor <|-- ShortViewURLConstructor

        interface org.apache.wiki.api.engine.Initializable {
            {abstract} +initialize(Engine, Properties): void
        }
        org.apache.wiki.api.engine.Initializable <|.. URLConstructor

        URLConstructor <|.. DefaultURLConstructor

    }


    center footer UMLDoclet 1.1.4, PlantUML 1.2019.05
@enduml
